<?xml version="1.0" standalone="no"?>
<!DOCTYPE svg PUBLIC "-//W3C//DTD SVG 20010904//EN"
 "http://www.w3.org/TR/2001/REC-SVG-20010904/DTD/svg10.dtd">
<svg version="1.0" xmlns="http://www.w3.org/2000/svg"
 width="400.000000pt" height="400.000000pt" viewBox="0 0 400.000000 400.000000"
 preserveAspectRatio="xMidYMid meet">
<metadata>
Created by potrace 1.14, written by Peter Selinger 2001-2017
</metadata>
<g transform="translate(0.000000,400.000000) scale(0.100000,-0.100000)"
fill="#000000" stroke="none">
<path d="M0 2000 l0 -2000 2000 0 2000 0 0 2000 0 2000 -2000 0 -2000 0 0
-2000z m3120 757 l105 -23 3 -183 2 -182 -61 3 -62 3 -19 95 c-11 52 -26 103
-35 112 -37 41 -123 72 -213 76 -106 5 -178 -13 -234 -59 -108 -90 -82 -247
54 -333 19 -13 103 -46 185 -75 277 -97 379 -163 433 -280 34 -74 35 -208 1
-296 -44 -117 -172 -215 -328 -251 -108 -26 -324 -14 -479 25 -68 17 -132 36
-143 41 -18 10 -19 23 -19 196 l0 185 62 -3 63 -3 21 -103 c12 -56 29 -111 38
-121 28 -30 140 -81 215 -97 120 -24 259 6 325 72 82 82 87 202 12 290 -45 52
-101 81 -281 144 -204 71 -267 103 -324 166 -57 62 -78 103 -92 180 -36 194
89 371 306 436 85 26 318 18 465 -15z m-2018 -84 c54 -75 311 -438 358 -506 8
-12 58 -83 110 -157 107 -151 188 -273 197 -295 19 -50 23 28 23 433 0 513 10
463 -100 502 -83 29 -92 36 -87 74 l3 31 253 3 252 2 -3 -41 -3 -41 -85 -32
-85 -32 -6 -549 c-4 -311 -11 -574 -17 -605 -6 -30 -11 -63 -11 -72 -1 -15
-11 -18 -64 -18 l-63 0 -119 168 c-65 92 -136 192 -157 222 -128 180 -220 310
-273 385 -33 47 -85 121 -116 163 -30 42 -74 109 -97 147 l-42 70 0 -490 c0
-269 4 -495 8 -502 4 -7 43 -25 87 -41 l80 -29 3 -42 3 -41 -256 0 -256 0 3
42 3 41 79 27 c43 14 84 34 92 45 22 29 21 1057 -1 1078 -8 9 -51 27 -95 42
l-80 27 0 39 0 39 199 0 199 0 64 -87z"/>
</g>
</svg>
